<?xml version="1.0" encoding="utf-8"?>
<!-- Generator: Adobe Illustrator 28.0.0, SVG Export Plug-In . SVG Version: 6.00 Build 0)  -->
<svg version="1.1" id="Layer_1" xmlns="http://www.w3.org/2000/svg" xmlns:xlink="http://www.w3.org/1999/xlink" x="0px" y="0px"
	 viewBox="0 0 205.8 130.3" style="enable-background:new 0 0 205.8 130.3;" xml:space="preserve">
<style type="text/css">
	.st0{fill:#B7925C;}
	.st1{fill:none;stroke:#B7925C;stroke-width:0.75;stroke-miterlimit:10;}
</style>
<g>
	<path class="st0" d="M10.8,97.3c0,0,1.2-1.7,2.7-1.8c1.7-0.1,2.6,0.9,4.4,0.8c1.1-0.1,2.5-0.6,2.5-0.6s-1.6,1.5-3.2,1.6
		c-1.2,0.1-1.9-0.4-3.4-0.7c-1.4-0.2-2,0.1-2,0.1L10.8,97.3z"/>
	<path class="st0" d="M11.7,95.5c0,0,1.8-1.6,3.2-1.6c1.4,0.1,1.9,0.9,2.8,0.9s1.7-0.3,1.7-0.3s-1.2,0.9-2.4,0.9
		c-0.9,0.1-1.2-0.4-2.4-0.6c-1.3-0.2-2.1,0.2-2.1,0.2L11.7,95.5z"/>
</g>
<g>
	<path class="st0" d="M45.2,97.3c0,0,1.2-1.7,2.7-1.8c1.7-0.1,2.6,0.9,4.4,0.8c1.1-0.1,2.5-0.6,2.5-0.6s-1.6,1.5-3.2,1.6
		c-1.2,0.1-1.9-0.4-3.4-0.7c-1.4-0.2-2,0.1-2,0.1L45.2,97.3z"/>
	<path class="st0" d="M46,95.5c0,0,1.8-1.6,3.2-1.6c1.4,0.1,1.9,0.9,2.8,0.9s1.7-0.3,1.7-0.3s-1.2,0.9-2.4,0.9
		c-0.9,0.1-1.2-0.4-2.4-0.6c-1.3-0.2-2.1,0.2-2.1,0.2L46,95.5z"/>
</g>
<g>
	<path class="st0" d="M102.5,97.3c0,0,1.2-1.7,2.7-1.8c1.7-0.1,2.6,0.9,4.4,0.8c1.1-0.1,2.5-0.6,2.5-0.6s-1.6,1.5-3.2,1.6
		c-1.2,0.1-1.9-0.4-3.4-0.7c-1.4-0.2-2,0.1-2,0.1L102.5,97.3z"/>
	<path class="st0" d="M103.3,95.5c0,0,1.8-1.6,3.2-1.6c1.4,0.1,1.9,0.9,2.8,0.9s1.7-0.3,1.7-0.3s-1.2,0.9-2.4,0.9
		c-0.9,0.1-1.2-0.4-2.4-0.6c-1.3-0.2-2.1,0.2-2.1,0.2L103.3,95.5z"/>
</g>
<g>
	<path class="st0" d="M154.5,97.3c0,0,1.2-1.7,2.7-1.8c1.7-0.1,2.6,0.9,4.4,0.8c1.1-0.1,2.5-0.6,2.5-0.6s-1.6,1.5-3.2,1.6
		c-1.2,0.1-1.9-0.4-3.4-0.7c-1.4-0.2-2,0.1-2,0.1L154.5,97.3z"/>
	<path class="st0" d="M155.4,95.5c0,0,1.8-1.6,3.2-1.6c1.4,0.1,1.9,0.9,2.8,0.9c0.9,0,1.7-0.3,1.7-0.3s-1.2,0.9-2.4,0.9
		c-0.9,0.1-1.2-0.4-2.4-0.6c-1.3-0.2-2.1,0.2-2.1,0.2L155.4,95.5z"/>
</g>
<ellipse class="st1" cx="100.3" cy="42.7" rx="35.6" ry="35.5"/>
<polyline class="st1" points="89.7,33.5 100.2,22.7 117,39.5 117.1,51.2 "/>
<path class="st1" d="M67,55c0,0,2.9-1.6,9.3,0c8.5,2.1,27.7,10.6,35.6,11c5,0.2,8.5,0.6,11.2-0.1c2.6-0.7,6.4-2.5,6.4-2.5"/>
<path class="st1" d="M135.2,49.6c0,0-5.3-1.3-11-0.2c-5.7,1.1-16.1,5.3-22.7,7.3c-6.6,2-7.4,1.7-10.7,1.6s-8.6-1.4-12.9-2.8"/>
<line class="st1" x1="83.2" y1="41.7" x2="83.2" y2="56.9"/>
<path class="st0" d="M82.5,41.7l1.6,0v-1.2c0,0,2.5,0.4,3.9,1.7c1.4,1.3,2.2,1.8,2.2,1.8s0.1-1.3-1.2-2.5s-2-1.3-2.5-1.3
	c-0.5,0-1.5-0.1-1.5-0.1s3.2-1.3,5.5-0.2c2.4,1.1,4.1,2.1,4.1,2.1s-0.8-2.6-4-3.4C89,38.2,86,38.8,86,38.8l-1,0.4c0,0,1.9-2,5-2
	c3.1,0,3.7,0.2,3.7,0.2s-1.7-1.6-5.1-1.2c-2.2,0.3-4.1,1.7-4.1,1.7s0.5-0.9,1.5-1.6c1.8-1.4,2.9-1.9,2.9-1.9s-2.8-0.1-4,1.4
	c-0.8,0.9-1.6,2.4-1.6,2.4s-1.3-2.5-2.5-3.2c-1.2-0.7-2.9-0.6-2.9-0.6s2.3,1.2,3,2s1.6,2.2,1.6,2.2s-2.4-2.4-5.1-2.6
	c-2.3-0.1-4.3,1.2-4.3,1.2s2.4-0.4,4.5,0c2.4,0.4,4,1.8,4,1.8s-2.5-0.9-5.1-0.3c-2.6,0.6-4,3.1-4,3.1s1.8-1.8,4.8-2.1
	c3-0.3,4.1,0.1,4.1,0.1s-1.8,0.1-2.9,1.2c-1.9,1.7-2,3.1-2,3.1s1-1.6,3.3-2.5c2.3-1,2.7-0.9,2.7-0.9L82.5,41.7z"/>
<g>
	<path class="st0" d="M11.6,102c0.1,0.5,0.4,0.8,0.9,1.1c0.5,0.3,1.3,0.4,2.4,0.4c3.2,0,5.3-1.1,6.2-3.3c0.1-0.3,0.2-0.4,0.4-0.4
		c0.1,0,0.2,0.1,0.2,0.3c0,0.1,0,0.2-0.1,0.3c0,0.2-0.2,0.7-0.4,1.8c0,0.2-0.2,0.9-0.5,1.9l-5.2,0c-0.7,0-1.8,0-3.3-0.1
		s-2.7-0.1-3.8-0.1c-1.1,0-1.7,0-1.7-0.1c0,0-0.1-0.1-0.1-0.1c0-0.2,0.1-0.2,0.4-0.2c0.9,0,1.5-0.2,1.8-0.7c0.3-0.5,0.4-1.7,0.4-3.6
		l0-2.5l0-2.4c0-0.5,0-1.4-0.1-2.7c-0.1-1.3-0.1-2.1-0.1-2.3c0-0.2-0.2-0.4-0.4-0.6c-0.2-0.2-0.7-0.4-1.4-0.6C7.1,88,7,87.9,7,87.8
		c0-0.1,0.1-0.2,0.4-0.2l2.5,0.1c0.9,0,3.1,0.1,6.6,0.1c2.3,0,3.5,0,3.5,0c0.2,0.9,0.5,2.2,0.7,3.9c0,0.1-0.1,0.1-0.1,0.1
		c-0.1,0-0.1,0-0.2-0.1c-0.6-0.9-1.1-1.6-1.6-2.1c-0.5-0.5-1-0.8-1.6-1s-1.4-0.3-2.7-0.3c-1.2,0-2.2,0.1-2.9,0.2
		c-0.1,0.1-0.1,0.2-0.1,0.5c0,0.1,0,0.2,0,0.3"/>
	<path class="st0" d="M31.6,104.1h-0.7c-0.4-1.2-1-3-1.8-5.1l-2.3-6c-0.7-1.9-1.2-3-1.5-3.5c-0.3-0.5-0.6-0.8-0.8-0.9
		c-0.3-0.2-0.7-0.3-1.2-0.3c-0.2,0-0.3-0.1-0.3-0.2c0-0.2,0.1-0.2,0.3-0.2h6.5c0.4,0,0.6,0.1,0.6,0.2c0,0.2-0.1,0.3-0.4,0.3
		c-1.1,0-1.6,0.5-1.6,1.4c0,0.2,0,0.6,0.1,1.1c0.1,0.5,0.3,1.1,0.5,1.8c0.2,0.7,0.8,2.2,1.6,4.4c0.8,2.2,1.3,3.6,1.5,4.1l2.7-7.4
		c0.8-2.1,1.1-3.4,1.1-3.9c0-0.9-0.5-1.3-1.6-1.4c-0.2,0-0.3-0.1-0.3-0.2c0-0.1,0-0.2,0.1-0.2c0.1,0,0.3,0,0.7,0h4.1
		c0.4,0,0.6,0,0.7,0s0.1,0.1,0.1,0.2c0,0.1-0.2,0.2-0.5,0.3c-0.6,0.1-1.1,0.3-1.4,0.7s-0.6,0.8-0.9,1.3c-0.3,0.5-1,2.5-2.3,6
		C34.1,97.4,33.1,100.1,31.6,104.1z"/>
	<path class="st0" d="M45.3,95.7c0,0.6,0,1.6,0,2.9c0,1.7,0.1,2.9,0.2,3.3c0.1,0.5,0.4,0.8,0.9,1.1c0.5,0.3,1.3,0.4,2.4,0.4
		c3.2,0,5.3-1.1,6.2-3.3c0.1-0.3,0.2-0.4,0.4-0.4c0.1,0,0.2,0.1,0.2,0.3c0,0.1,0,0.2-0.1,0.3c0,0.2-0.2,0.7-0.4,1.8
		c0,0.2-0.2,0.9-0.5,1.9l-5.2,0c-0.7,0-1.8,0-3.3-0.1s-2.7-0.1-3.8-0.1c-1.1,0-1.7,0-1.7-0.1c0,0-0.1-0.1-0.1-0.1
		c0-0.2,0.1-0.2,0.4-0.2c0.9,0,1.5-0.2,1.8-0.7c0.3-0.5,0.4-1.7,0.4-3.6l0-2.5l0-2.4c0-0.5,0-1.4-0.1-2.7c-0.1-1.3-0.1-2.1-0.1-2.3
		c0-0.2-0.2-0.4-0.4-0.6c-0.2-0.2-0.7-0.4-1.4-0.6c-0.2-0.1-0.3-0.1-0.3-0.3c0-0.1,0.1-0.2,0.4-0.2l2.5,0.1c0.9,0,3.1,0.1,6.6,0.1
		c2.3,0,3.5,0,3.5,0c0.2,0.9,0.5,2.2,0.7,3.9c0,0.1-0.1,0.1-0.1,0.1c-0.1,0-0.1,0-0.2-0.1c-0.6-0.9-1.1-1.6-1.6-2.1
		c-0.5-0.5-1-0.8-1.6-1s-1.4-0.3-2.7-0.3c-1.2,0-2.2,0.1-2.9,0.2c-0.1,0.1-0.1,0.2-0.1,0.5c0,0.1,0,0.2,0,0.3
		c-0.1,0.7-0.1,2.5-0.1,5.4c0,0.1,0,0.3,0,0.5"/>
	<path class="st0" d="M66.7,95.6c1.1,0.5,1.9,1,2.4,1.6s0.8,1.4,1,2.5c0.3,1.5,0.7,2.5,1.2,3c0.5,0.5,1.1,0.8,1.9,0.8
		c0.2,0,0.3,0.1,0.3,0.2s-0.1,0.2-0.4,0.2c-2.3,0-3.7-0.1-4.2-0.2c-0.5-0.2-0.9-1-1.1-2.5c-0.2-1.5-0.5-2.6-0.7-3.3
		c-0.2-0.7-0.6-1.2-1.2-1.6c-0.5-0.4-1.4-0.6-2.5-0.6c-0.4,0-0.9,0-1.5,0.1c0,0.5-0.1,1.1-0.1,1.6c0,2.1,0,3.5,0.1,4.1
		c0.1,0.6,0.2,1.1,0.5,1.4c0.3,0.3,0.8,0.4,1.5,0.5c0.3,0,0.4,0.1,0.4,0.2c0,0.2-0.2,0.2-0.5,0.2h-6.1c-0.4,0-0.5-0.1-0.5-0.2
		c0-0.1,0.1-0.2,0.4-0.2c0.6,0,1.1-0.1,1.3-0.3c0.2-0.2,0.4-0.5,0.6-0.9s0.2-1.1,0.2-2.2l0-2.5l0-3.9c0-2,0-3.3-0.1-3.9
		s-0.2-1.1-0.5-1.3c-0.2-0.2-0.7-0.4-1.6-0.5c-0.2,0-0.3-0.1-0.3-0.2c0-0.1,0.2-0.2,0.5-0.2l7.3-0.2c2,0,3.5,0.4,4.4,1.2
		c0.9,0.8,1.4,1.7,1.4,2.9c0,0.7-0.2,1.4-0.6,1.9c-0.4,0.6-0.8,1-1.3,1.3C68.7,94.9,67.8,95.2,66.7,95.6z M62,95.2
		c1.6,0,2.8-0.1,3.6-0.3c0.8-0.2,1.5-0.6,2-1.3s0.8-1.4,0.8-2.3c0-0.9-0.3-1.7-0.9-2.4c-0.6-0.7-1.6-1-3-1c-0.7,0-1.6,0.1-2.5,0.3
		c-0.1,2.3-0.1,4.1-0.1,5.4C61.9,94.1,62,94.6,62,95.2z"/>
	<path class="st0" d="M90.3,95.6c1.1,0.5,1.9,1,2.4,1.6s0.8,1.4,1,2.5c0.3,1.5,0.7,2.5,1.2,3c0.5,0.5,1.1,0.8,1.9,0.8
		c0.2,0,0.3,0.1,0.3,0.2s-0.1,0.2-0.4,0.2c-2.3,0-3.7-0.1-4.2-0.2c-0.5-0.2-0.9-1-1.1-2.5c-0.2-1.5-0.5-2.6-0.7-3.3
		c-0.2-0.7-0.6-1.2-1.2-1.6c-0.5-0.4-1.4-0.6-2.5-0.6c-0.4,0-0.9,0-1.5,0.1c0,0.5-0.1,1.1-0.1,1.6c0,2.1,0,3.5,0.1,4.1
		c0.1,0.6,0.2,1.1,0.5,1.4c0.3,0.3,0.8,0.4,1.5,0.5c0.3,0,0.4,0.1,0.4,0.2c0,0.2-0.2,0.2-0.5,0.2h-6.1c-0.4,0-0.5-0.1-0.5-0.2
		c0-0.1,0.1-0.2,0.4-0.2c0.6,0,1.1-0.1,1.3-0.3c0.2-0.2,0.4-0.5,0.6-0.9s0.2-1.1,0.2-2.2l0-2.5l0-3.9c0-2,0-3.3-0.1-3.9
		s-0.2-1.1-0.5-1.3c-0.2-0.2-0.7-0.4-1.6-0.5c-0.2,0-0.3-0.1-0.3-0.2c0-0.1,0.2-0.2,0.5-0.2l7.3-0.2c2,0,3.5,0.4,4.4,1.2
		c0.9,0.8,1.4,1.7,1.4,2.9c0,0.7-0.2,1.4-0.6,1.9c-0.4,0.6-0.8,1-1.3,1.3C92.2,94.9,91.4,95.2,90.3,95.6z M85.6,95.2
		c1.6,0,2.8-0.1,3.6-0.3c0.8-0.2,1.5-0.6,2-1.3s0.8-1.4,0.8-2.3c0-0.9-0.3-1.7-0.9-2.4c-0.6-0.7-1.6-1-3-1c-0.7,0-1.6,0.1-2.5,0.3
		c-0.1,2.3-0.1,4.1-0.1,5.4C85.5,94.1,85.5,94.6,85.6,95.2z"/>
	<path class="st0" d="M102.7,95.7c0,0.6,0,1.6,0,2.9c0,1.7,0.1,2.9,0.2,3.3c0.1,0.5,0.4,0.8,0.9,1.1c0.5,0.3,1.3,0.4,2.4,0.4
		c3.2,0,5.3-1.1,6.2-3.3c0.1-0.3,0.2-0.4,0.4-0.4c0.1,0,0.2,0.1,0.2,0.3c0,0.1,0,0.2-0.1,0.3c0,0.2-0.2,0.7-0.4,1.8
		c0,0.2-0.2,0.9-0.5,1.9l-5.2,0c-0.7,0-1.8,0-3.3-0.1c-1.4-0.1-2.7-0.1-3.8-0.1c-1.1,0-1.7,0-1.7-0.1s-0.1-0.1-0.1-0.1
		c0-0.2,0.1-0.2,0.4-0.2c0.9,0,1.5-0.2,1.8-0.7c0.3-0.5,0.4-1.7,0.4-3.6l0-2.5l0-2.4c0-0.5,0-1.4-0.1-2.7c-0.1-1.3-0.1-2.1-0.1-2.3
		c0-0.2-0.2-0.4-0.4-0.6c-0.2-0.2-0.7-0.4-1.4-0.6c-0.2-0.1-0.3-0.1-0.3-0.3c0-0.1,0.1-0.2,0.4-0.2l2.5,0.1c0.9,0,3.1,0.1,6.6,0.1
		c2.3,0,3.5,0,3.5,0c0.2,0.9,0.5,2.2,0.7,3.9c0,0.1-0.1,0.1-0.1,0.1c-0.1,0-0.1,0-0.2-0.1c-0.6-0.9-1.1-1.6-1.6-2.1
		c-0.5-0.5-1-0.8-1.6-1s-1.4-0.3-2.7-0.3c-1.2,0-2.2,0.1-2.9,0.2c-0.1,0.1-0.1,0.2-0.1,0.5c0,0.1,0,0.2,0,0.3
		c-0.1,0.7-0.1,2.5-0.1,5.4c0,0.1,0,0.3,0,0.5"/>
	<path class="st0" d="M121.6,88.3c-0.6,0-1.1,0-1.4,0c-1.8,0-3.1,0.4-3.9,1.1c-0.8,0.7-1.3,1.4-1.4,2c0,0.2-0.2,0.3-0.3,0.3
		c-0.1,0-0.2,0-0.2-0.1c0-1,0.2-2.3,0.5-4c0.4,0,0.6,0,0.8,0c0.6,0,1.5,0,2.6,0.1c1.2,0.1,3,0.1,5.4,0.1c2.5,0,4.1,0,4.8-0.1
		c0.7-0.1,1.6-0.1,2.8-0.1c0.1,0.6,0.2,1.2,0.2,1.9c0,0.7,0.1,1.3,0.1,1.6c0,0.1,0,0.1,0,0.2c0,0.2-0.1,0.3-0.3,0.3
		c-0.1,0-0.2,0-0.3-0.1c-0.1-0.1-0.2-0.3-0.5-0.7c-0.4-0.7-0.9-1.2-1.3-1.5c-0.5-0.3-1-0.6-1.6-0.7c-0.6-0.1-1.7-0.2-3.5-0.2
		c-0.1,1.2-0.1,2.7-0.1,4.3c0,5.3,0.1,8.4,0.3,9.4c0.2,1,1,1.4,2.4,1.4c0.3,0,0.5,0.1,0.5,0.2c0,0.2-0.2,0.2-0.5,0.2h-7.6
		c-0.2,0-0.3-0.1-0.3-0.2c0-0.2,0.2-0.2,0.6-0.2c0.7,0,1.2-0.2,1.6-0.6c0.4-0.4,0.6-0.9,0.7-1.5c0.1-0.6,0.1-2.4,0.1-5.4
		C121.9,93.3,121.8,90.8,121.6,88.3z"/>
	<path class="st0" d="M142.4,95.6c1.1,0.5,1.9,1,2.4,1.6s0.8,1.4,1,2.5c0.3,1.5,0.7,2.5,1.2,3c0.5,0.5,1.1,0.8,1.9,0.8
		c0.2,0,0.3,0.1,0.3,0.2s-0.1,0.2-0.4,0.2c-2.3,0-3.7-0.1-4.2-0.2c-0.5-0.2-0.9-1-1.1-2.5c-0.2-1.5-0.5-2.6-0.7-3.3
		c-0.2-0.7-0.6-1.2-1.2-1.6c-0.5-0.4-1.4-0.6-2.5-0.6c-0.4,0-0.9,0-1.5,0.1c0,0.5-0.1,1.1-0.1,1.6c0,2.1,0,3.5,0.1,4.1
		s0.2,1.1,0.5,1.4c0.3,0.3,0.8,0.4,1.5,0.5c0.3,0,0.4,0.1,0.4,0.2c0,0.2-0.2,0.2-0.5,0.2h-6.1c-0.4,0-0.5-0.1-0.5-0.2
		c0-0.1,0.1-0.2,0.4-0.2c0.6,0,1.1-0.1,1.3-0.3c0.2-0.2,0.4-0.5,0.6-0.9c0.1-0.4,0.2-1.1,0.2-2.2l0-2.5l0-3.9c0-2,0-3.3-0.1-3.9
		c-0.1-0.6-0.2-1.1-0.5-1.3c-0.2-0.2-0.7-0.4-1.5-0.5c-0.2,0-0.3-0.1-0.3-0.2c0-0.1,0.2-0.2,0.5-0.2l7.3-0.2c2,0,3.5,0.4,4.4,1.2
		c0.9,0.8,1.4,1.7,1.4,2.9c0,0.7-0.2,1.4-0.6,1.9c-0.4,0.6-0.8,1-1.3,1.3C144.3,94.9,143.5,95.2,142.4,95.6z M137.7,95.2
		c1.6,0,2.8-0.1,3.6-0.3c0.8-0.2,1.5-0.6,2-1.3c0.6-0.6,0.8-1.4,0.8-2.3c0-0.9-0.3-1.7-0.9-2.4c-0.6-0.7-1.6-1-3-1
		c-0.7,0-1.6,0.1-2.5,0.3c-0.1,2.3-0.1,4.1-0.1,5.4C137.6,94.1,137.6,94.6,137.7,95.2z"/>
	<path class="st0" d="M154.8,95.7c0,0.6,0,1.6,0,2.9c0,1.7,0.1,2.9,0.2,3.3c0.1,0.5,0.4,0.8,0.9,1.1c0.5,0.3,1.3,0.4,2.4,0.4
		c3.2,0,5.3-1.1,6.2-3.3c0.1-0.3,0.2-0.4,0.4-0.4c0.1,0,0.2,0.1,0.2,0.3c0,0.1,0,0.2-0.1,0.3c0,0.2-0.2,0.7-0.4,1.8
		c0,0.2-0.2,0.9-0.5,1.9l-5.2,0c-0.7,0-1.8,0-3.3-0.1c-1.4-0.1-2.7-0.1-3.8-0.1c-1.1,0-1.7,0-1.7-0.1s-0.1-0.1-0.1-0.1
		c0-0.2,0.1-0.2,0.4-0.2c0.9,0,1.5-0.2,1.8-0.7c0.3-0.5,0.4-1.7,0.4-3.6l0-2.5l0-2.4c0-0.5,0-1.4-0.1-2.7c-0.1-1.3-0.1-2.1-0.1-2.3
		c0-0.2-0.2-0.4-0.4-0.6c-0.2-0.2-0.7-0.4-1.4-0.6c-0.2-0.1-0.3-0.1-0.3-0.3c0-0.1,0.1-0.2,0.4-0.2l2.5,0.1c0.9,0,3.1,0.1,6.6,0.1
		c2.3,0,3.5,0,3.5,0c0.2,0.9,0.5,2.2,0.7,3.9c0,0.1-0.1,0.1-0.1,0.1c-0.1,0-0.1,0-0.2-0.1c-0.6-0.9-1.1-1.6-1.6-2.1
		c-0.5-0.5-1-0.8-1.6-1s-1.4-0.3-2.7-0.3c-1.2,0-2.2,0.1-2.9,0.2c-0.1,0.1-0.1,0.2-0.1,0.5c0,0.1,0,0.2,0,0.3
		c-0.1,0.7-0.1,2.5-0.1,5.4c0,0.1,0,0.3,0,0.5"/>
	<path class="st0" d="M174.1,87.3h0.6c0.9,1.9,2.2,5.1,3.8,9.7c1,2.9,1.8,4.7,2.2,5.4s1,1,1.9,1.1c0.3,0,0.4,0.1,0.4,0.3
		c0,0.1-0.1,0.2-0.2,0.2l-0.2,0c-0.8-0.1-1.7-0.1-2.9-0.1c-1.8,0-3,0-3.5,0.1c-0.3,0-0.4-0.1-0.4-0.2c0-0.1,0.1-0.2,0.3-0.2
		c0.7-0.1,1.2-0.2,1.5-0.4c0.3-0.2,0.4-0.4,0.4-0.8c0-0.4-0.3-1.2-0.8-2.7l-0.7-2.1c-0.4,0-2.4,0-5.8,0.1c-0.9,2.3-1.3,3.7-1.3,4.3
		c0,0.5,0.2,0.9,0.6,1.1c0.4,0.2,0.8,0.4,1.3,0.4c0.3,0,0.5,0.1,0.5,0.3c0,0.1,0,0.1-0.1,0.2c-1.3-0.1-2.1-0.1-2.4-0.1
		c-1.4,0-2.3,0-2.8,0c-0.3,0-0.4-0.1-0.4-0.2c0-0.1,0.1-0.2,0.3-0.2c1-0.1,1.7-0.8,2.2-1.9s1.3-3.3,2.4-6.3
		C171.9,92.5,173,89.8,174.1,87.3z M173.6,90c-0.8,1.6-1.7,3.9-2.7,6.8c0.9,0,1.5-0.1,1.8-0.1l3.5,0.1c-0.3-0.9-0.7-2-1.3-3.4
		C174.3,91.7,173.9,90.6,173.6,90z"/>
	<path class="st0" d="M189.2,88.3c-0.6,0-1.1,0-1.4,0c-1.8,0-3.1,0.4-3.9,1.1c-0.8,0.7-1.3,1.4-1.4,2c0,0.2-0.2,0.3-0.3,0.3
		c-0.1,0-0.2,0-0.2-0.1c0-1,0.2-2.3,0.5-4c0.4,0,0.6,0,0.8,0c0.6,0,1.5,0,2.6,0.1c1.2,0.1,3,0.1,5.4,0.1c2.5,0,4.1,0,4.8-0.1
		c0.7-0.1,1.6-0.1,2.8-0.1c0.1,0.6,0.2,1.2,0.2,1.9c0,0.7,0.1,1.3,0.1,1.6c0,0.1,0,0.1,0,0.2c0,0.2-0.1,0.3-0.3,0.3
		c-0.1,0-0.2,0-0.3-0.1c-0.1-0.1-0.2-0.3-0.5-0.7c-0.4-0.7-0.9-1.2-1.3-1.5c-0.5-0.3-1-0.6-1.6-0.7c-0.6-0.1-1.7-0.2-3.5-0.2
		c-0.1,1.2-0.1,2.7-0.1,4.3c0,5.3,0.1,8.4,0.3,9.4c0.2,1,1,1.4,2.4,1.4c0.3,0,0.5,0.1,0.5,0.2c0,0.2-0.2,0.2-0.5,0.2h-7.6
		c-0.2,0-0.3-0.1-0.3-0.2c0-0.2,0.2-0.2,0.6-0.2c0.7,0,1.2-0.2,1.6-0.6c0.4-0.4,0.6-0.9,0.7-1.5c0.1-0.6,0.1-2.4,0.1-5.4
		C189.5,93.3,189.4,90.8,189.2,88.3z"/>
</g>
<g>
	<path class="st0" d="M37.1,110l0.2,0.2c-0.2,0.3-0.4,0.5-0.4,0.7c-0.1,0.2-0.1,0.5-0.1,1c0,1.8,0.4,4,1.2,6.6
		c0.5,1.4,0.8,2.1,1.1,2.1c0.1,0,0.3-0.1,0.6-0.4l0.2,0.2l-0.1,0.1c-0.5,0.5-0.9,1-1.3,1.4l-0.2,0.2c-0.7-1.4-1.3-3-1.7-4.6
		c-0.5-1.7-0.7-3-0.7-4.1c0-0.4,0-0.9,0.1-1.5l0-0.2c-0.4,0.4-1.1,1.2-2,2.3c-0.6,0.7-1.1,1.3-1.5,1.8l-0.2,0.2c0.3,0,0.6,0,1,0
		l2.4,0l0.3,0c-0.2,0.5-0.4,1.2-0.6,2h-0.3c0.1-0.3,0.1-0.5,0.1-0.7c0-0.2-0.1-0.3-0.2-0.4c-0.1-0.1-0.4-0.1-0.9-0.1h-1.2l-1.3,0
		l-0.2,0l-0.2,0.2c-1.2,1.1-1.9,1.9-2.4,2.2c-0.4,0.3-1,0.8-1.8,1.3l-0.2,0.2c0.4,0,0.8,0,1.2,0c1,0,1.8,0,2.3,0.1l1.5,0.2
		c0.4,0,0.8,0.1,1.1,0.1c0.8,0,1.5-0.2,2-0.6c0.5-0.4,0.8-1.1,0.9-1.9c0.2,0.1,0.3,0.3,0.3,0.5c0,0.5-0.3,1-0.9,1.6
		c-1,0.9-2,1.4-3.1,1.4c-0.4,0-0.9,0-1.6-0.1c-1.6-0.2-2.9-0.3-3.8-0.3l-1.7,0h-0.2l0.5-0.8c1.4-0.5,2.7-1.3,4-2.4
		c1.2-1.1,2.9-3,5.1-5.8C35.9,111.4,36.6,110.5,37.1,110z"/>
	<path class="st0" d="M46,115.2l-1.1,2.1h-0.3l0.1-0.1c0.2-0.4,0.3-0.7,0.3-0.8c0-0.2-0.2-0.3-0.6-0.3c-0.6,0-1.2,0.3-1.6,0.8
		c-0.4,0.5-0.8,1.1-1.1,1.8c-0.3,0.7-0.5,1.3-0.5,1.8c0,0.6,0.3,0.9,0.8,0.9c0.5,0,0.9-0.2,1.4-0.6c0.5-0.4,0.9-0.9,1.2-1.6l0.2-0.4
		c0,0,0-0.1,0.1-0.1c0.1,0.1,0.1,0.2,0.1,0.3c0,0.5-0.3,1-1,1.7c-1,1-1.9,1.5-2.8,1.5c-0.7,0-1.1-0.4-1.1-1.2c0-0.7,0.2-1.4,0.7-2.2
		c0.5-0.8,1.1-1.5,1.9-2.2c1-0.9,2.1-1.3,3-1.3C45.7,115.2,45.8,115.2,46,115.2z"/>
	<path class="st0" d="M50.9,115.2l-1.1,2.1h-0.3l0.1-0.1c0.2-0.4,0.3-0.7,0.3-0.8c0-0.2-0.2-0.3-0.6-0.3c-0.6,0-1.2,0.3-1.6,0.8
		c-0.4,0.5-0.8,1.1-1.1,1.8c-0.3,0.7-0.5,1.3-0.5,1.8c0,0.6,0.3,0.9,0.8,0.9c0.5,0,0.9-0.2,1.4-0.6c0.5-0.4,0.9-0.9,1.2-1.6l0.2-0.4
		c0,0,0-0.1,0.1-0.1c0.1,0.1,0.1,0.2,0.1,0.3c0,0.5-0.3,1-1,1.7c-1,1-1.9,1.5-2.8,1.5c-0.7,0-1.1-0.4-1.1-1.2c0-0.7,0.2-1.4,0.7-2.2
		c0.5-0.8,1.1-1.5,1.9-2.2c1-0.9,2.1-1.3,3-1.3C50.6,115.2,50.7,115.2,50.9,115.2z"/>
	<path class="st0" d="M55.8,116c-0.3,0-0.5,0-0.7,0c-1.4,0-2.5,0.5-3.3,1.6c-0.3,0.4-0.5,0.9-0.8,1.5c-0.2,0.6-0.3,1-0.3,1.4
		c0,0.3,0.1,0.5,0.2,0.7c0.2,0.2,0.3,0.3,0.6,0.3c0.6,0,1.2-0.4,1.9-1.3c0.7-0.9,1-1.7,1-2.5c0-0.2,0-0.3-0.1-0.4
		c-0.1-0.1-0.2-0.2-0.3-0.2c-0.4,0-0.8,0.4-1.2,1.3c0-0.1,0-0.2,0-0.3c0-0.3,0.2-0.7,0.6-1.1c0.4-0.4,0.8-0.5,1.2-0.5
		c0.2,0,0.5,0.1,0.6,0.3c0.2,0.2,0.3,0.4,0.3,0.7c0,1-0.6,2-1.9,3.1c-1.1,0.9-2,1.4-2.7,1.4c-0.3,0-0.6-0.1-0.8-0.3
		c-0.2-0.2-0.3-0.5-0.3-0.8c0-0.7,0.3-1.5,0.8-2.3c0.5-0.8,1.2-1.5,2-2.1c0.5-0.3,1-0.6,1.5-0.8s1-0.3,1.4-0.3
		c0.2,0,0.4,0.1,0.4,0.3C55.9,115.7,55.9,115.9,55.8,116z"/>
	<path class="st0" d="M63.4,120.8l0.1,0.2c-0.6,0.4-1.3,0.7-2,1c0.1-1.2,0.6-2.8,1.7-4.9l0.2-0.5c0-0.1,0.1-0.1,0.1-0.2
		c0-0.1-0.1-0.2-0.2-0.2c-0.2,0-0.7,0.3-1.4,1c-0.5,0.5-1,1.1-1.4,1.9c-0.4,0.8-0.8,1.6-1.1,2.4c-0.3,0.1-0.7,0.2-1.1,0.5l0.1-0.2
		l0.5-1.2c0.4-0.9,0.7-1.7,1-2.6c0.3-0.9,0.4-1.4,0.4-1.6c0-0.2-0.1-0.2-0.2-0.2c-0.2,0-0.5,0.2-0.9,0.7s-0.8,0.9-1.2,1.5
		c-0.6,1-1.2,2.1-1.7,3.3c-0.1,0-0.1,0-0.1,0l-0.4,0.2c-0.2,0.1-0.4,0.1-0.5,0.2c0.1-0.3,0.4-0.9,0.8-1.8l0.6-1.5
		c0.5-1.2,0.7-1.9,0.7-2.2c0-0.2-0.1-0.3-0.2-0.3c-0.1,0-0.3,0-0.5,0.1l-0.1-0.3c0.5-0.2,1.1-0.5,1.8-1l0.2-0.1c0,0.1,0,0.2,0,0.3
		c0,0.5-0.3,1.4-0.8,2.7c1.5-1.9,2.7-2.9,3.5-2.9c0.2,0,0.4,0.1,0.4,0.4c0,0.4-0.3,1.3-0.8,2.6c0.6-0.8,1.3-1.5,2-2.1
		c0.7-0.6,1.3-0.9,1.7-0.9c0.2,0,0.3,0.1,0.3,0.3c0,0.2-0.2,0.7-0.6,1.5c-1,2.1-1.5,3.3-1.5,3.7c0,0.1,0.1,0.2,0.2,0.2
		C63,121,63.2,120.9,63.4,120.8z"/>
	<path class="st0" d="M72.4,120.8l0.1,0.2c-0.6,0.4-1.3,0.7-2,1c0.1-1.2,0.6-2.8,1.7-4.9l0.2-0.5c0-0.1,0.1-0.1,0.1-0.2
		c0-0.1-0.1-0.2-0.2-0.2c-0.2,0-0.7,0.3-1.4,1c-0.5,0.5-1,1.1-1.4,1.9c-0.4,0.8-0.8,1.6-1.1,2.4c-0.3,0.1-0.7,0.2-1.1,0.5l0.1-0.2
		l0.5-1.2c0.4-0.9,0.7-1.7,1-2.6c0.3-0.9,0.4-1.4,0.4-1.6c0-0.2-0.1-0.2-0.2-0.2c-0.2,0-0.5,0.2-0.9,0.7s-0.8,0.9-1.2,1.5
		c-0.6,1-1.2,2.1-1.7,3.3c-0.1,0-0.1,0-0.1,0l-0.4,0.2c-0.2,0.1-0.4,0.1-0.5,0.2c0.1-0.3,0.4-0.9,0.8-1.8l0.6-1.5
		c0.5-1.2,0.7-1.9,0.7-2.2c0-0.2-0.1-0.3-0.2-0.3c-0.1,0-0.3,0-0.5,0.1l-0.1-0.3c0.5-0.2,1.1-0.5,1.8-1l0.2-0.1c0,0.1,0,0.2,0,0.3
		c0,0.5-0.3,1.4-0.8,2.7c1.5-1.9,2.7-2.9,3.5-2.9c0.2,0,0.4,0.1,0.4,0.4c0,0.4-0.3,1.3-0.8,2.6c0.6-0.8,1.3-1.5,2-2.1
		c0.7-0.6,1.3-0.9,1.7-0.9c0.2,0,0.3,0.1,0.3,0.3c0,0.2-0.2,0.7-0.6,1.5c-1,2.1-1.5,3.3-1.5,3.7c0,0.1,0.1,0.2,0.2,0.2
		C72,121,72.1,120.9,72.4,120.8z"/>
	<path class="st0" d="M79.3,116c-0.3,0-0.5,0-0.7,0c-1.4,0-2.5,0.5-3.3,1.6c-0.3,0.4-0.5,0.9-0.8,1.5c-0.2,0.6-0.3,1-0.3,1.4
		c0,0.3,0.1,0.5,0.2,0.7c0.2,0.2,0.3,0.3,0.6,0.3c0.6,0,1.2-0.4,1.9-1.3c0.7-0.9,1-1.7,1-2.5c0-0.2,0-0.3-0.1-0.4
		c-0.1-0.1-0.2-0.2-0.3-0.2c-0.4,0-0.8,0.4-1.2,1.3c0-0.1,0-0.2,0-0.3c0-0.3,0.2-0.7,0.6-1.1c0.4-0.4,0.8-0.5,1.2-0.5
		c0.2,0,0.5,0.1,0.6,0.3c0.2,0.2,0.3,0.4,0.3,0.7c0,1-0.6,2-1.9,3.1c-1.1,0.9-2,1.4-2.7,1.4c-0.3,0-0.6-0.1-0.8-0.3
		c-0.2-0.2-0.3-0.5-0.3-0.8c0-0.7,0.3-1.5,0.8-2.3c0.5-0.8,1.2-1.5,2-2.1c0.5-0.3,1-0.6,1.5-0.8s1-0.3,1.4-0.3
		c0.2,0,0.4,0.1,0.4,0.3C79.4,115.7,79.4,115.9,79.3,116z"/>
	<path class="st0" d="M87.3,110.9c0,0.4-0.3,1.1-0.8,2.4l-0.6,1.5l-0.2,0.6c0.3,0.1,0.5,0.4,0.5,0.8c-0.2-0.1-0.5-0.1-0.8-0.1
		l-0.1,0.1l-1,2.7c-0.5,1.2-0.7,1.9-0.7,2.1c0,0.2,0.1,0.2,0.2,0.2c0.2,0,0.4-0.1,0.7-0.3c0,0,0,0,0.1,0l0.2,0.2
		c-0.6,0.4-1.4,0.8-2.4,1.1l0.1-0.3c0.2-0.6,0.5-1.5,0.8-2.4c0.1-0.3,0.2-0.6,0.3-0.8l0.9-2.4l0.1-0.2c-0.6,0-1.2,0.2-1.9,0.5
		c-0.7,0.3-1.3,0.7-1.8,1.2c-0.9,0.9-1.4,1.9-1.4,2.9c0,0.5,0.2,0.7,0.5,0.7c0.3,0,0.7-0.2,1.2-0.7c0.5-0.5,0.9-1,1.3-1.6
		c0.4-0.6,0.6-1.3,0.9-2.1c0.1,0.2,0.1,0.4,0.1,0.6c0,0.4-0.2,1-0.6,1.6c-0.4,0.6-0.9,1.2-1.5,1.7c-1,0.8-1.7,1.2-2.3,1.2
		c-0.4,0-0.6-0.3-0.6-0.8c0-0.4,0.1-1,0.4-1.5c0.3-0.6,0.7-1.1,1.2-1.7c1.3-1.5,2.9-2.4,4.7-2.7l0.2-0.6l0.6-1.5
		c0.2-0.4,0.3-0.7,0.3-0.9c0-0.2-0.1-0.3-0.3-0.3c-0.1,0-0.3,0-0.5,0.1l-0.1-0.2l0.1,0C86,111.5,86.7,111.2,87.3,110.9z"/>
	<path class="st0" d="M90.7,120.8l0.1,0.2c-0.6,0.4-1.3,0.8-2.3,1c0-0.5,0.3-1.5,1-2.8c-0.7,0.8-1.4,1.5-2.1,2
		c-0.7,0.5-1.3,0.8-1.8,0.8c-0.4,0-0.6-0.2-0.6-0.7c0-0.8,0.4-1.7,1.1-2.6c0.7-0.9,1.6-1.7,2.7-2.3c1.2-0.7,2.5-1,3.7-1
		c0.2,0,0.3,0.1,0.3,0.2c0,0.1-0.1,0.3-0.2,0.6c-0.4-0.1-0.7-0.1-1.1-0.1c-1.6,0-3.1,0.6-4.2,1.9c-0.9,0.9-1.3,1.9-1.3,2.8
		c0,0.4,0.2,0.6,0.5,0.6c0.3,0,0.7-0.2,1.2-0.7c0.5-0.5,1-1,1.4-1.6c0.5-0.9,0.9-1.7,1.1-2.7c0.2,0.1,0.3,0.4,0.3,0.8
		c0,0.5-0.3,1.1-0.8,1.8c0.3,0,0.6-0.1,1-0.2l-0.1,0.1c-0.5,1.1-0.8,1.8-0.8,2c0,0.2,0.1,0.2,0.2,0.2
		C90.2,121.1,90.4,121,90.7,120.8z"/>
	<path class="st0" d="M96,115.3l-0.1,0.2h-1.1l-0.1,0.1c-0.1,0.2-0.4,0.8-0.8,1.9c-0.2,0.4-0.4,1-0.8,1.8c-0.4,0.9-0.6,1.4-0.6,1.7
		s0.1,0.3,0.4,0.3c0.3,0,0.7-0.2,1.2-0.5l0.1,0.2c-0.3,0.2-0.7,0.5-1.1,0.6c-0.4,0.2-0.8,0.3-1,0.3c-0.4,0-0.6-0.2-0.6-0.5
		c0-0.2,0.2-0.9,0.7-1.9l0.8-1.9c0.5-1.1,0.7-1.7,0.8-1.9l0.1-0.2h-1.1l0.1-0.2H93c0.5,0,0.8-0.1,0.9-0.2s0.4-0.6,0.7-1.2
		c0.1,0,0.1,0,0.2,0c0.3,0,0.5,0,0.8-0.1c-0.1,0.2-0.2,0.4-0.3,0.8l-0.2,0.6l-0.1,0.2H96z"/>
	<path class="st0" d="M98.1,115.1L98.1,115.1c0,0.6-0.3,1.6-1,3.1l-0.6,1.4c-0.3,0.7-0.5,1.2-0.5,1.3c0,0.2,0.1,0.2,0.3,0.2
		c0.1,0,0.3-0.1,0.5-0.2l0.1,0.2c-0.8,0.4-1.5,0.7-2,0.9c0-0.5,0.1-1,0.2-1.4c0.1-0.4,0.4-1.1,0.9-2.1c0.6-1.3,0.9-2,0.9-2.2
		c0-0.2-0.1-0.3-0.2-0.3c-0.1,0-0.2,0-0.3,0.1l-0.3,0.1c0,0-0.1,0-0.2,0.1l-0.1-0.3l0.2-0.1c0.6-0.2,1.2-0.5,1.8-0.7L98.1,115.1z
		 M98.6,113c0.2,0,0.4,0.1,0.4,0.4c0,0.1-0.1,0.3-0.2,0.4c-0.1,0.1-0.2,0.2-0.4,0.2c-0.3,0-0.4-0.1-0.4-0.4c0-0.1,0.1-0.3,0.2-0.4
		C98.3,113.1,98.4,113,98.6,113z"/>
	<path class="st0" d="M103.7,116c-0.3,0-0.5,0-0.7,0c-1.4,0-2.5,0.5-3.3,1.6c-0.3,0.4-0.5,0.9-0.8,1.5c-0.2,0.6-0.3,1-0.3,1.4
		c0,0.3,0.1,0.5,0.2,0.7s0.3,0.3,0.6,0.3c0.6,0,1.2-0.4,1.9-1.3c0.7-0.9,1-1.7,1-2.5c0-0.2,0-0.3-0.1-0.4c-0.1-0.1-0.2-0.2-0.3-0.2
		c-0.4,0-0.8,0.4-1.2,1.3c0-0.1,0-0.2,0-0.3c0-0.3,0.2-0.7,0.6-1.1s0.8-0.5,1.2-0.5c0.2,0,0.5,0.1,0.6,0.3c0.2,0.2,0.3,0.4,0.3,0.7
		c0,1-0.6,2-1.9,3.1c-1.1,0.9-2,1.4-2.7,1.4c-0.3,0-0.6-0.1-0.8-0.3c-0.2-0.2-0.3-0.5-0.3-0.8c0-0.7,0.3-1.5,0.8-2.3
		c0.5-0.8,1.2-1.5,2-2.1c0.5-0.3,1-0.6,1.5-0.8s1-0.3,1.4-0.3c0.2,0,0.4,0.1,0.4,0.3C103.8,115.7,103.8,115.9,103.7,116z"/>
	<path class="st0" d="M108.7,120.8l0.1,0.2c-0.6,0.5-1.4,0.8-2.3,1c0.1-0.9,0.6-2.2,1.6-4.1l0.5-1c0.2-0.3,0.3-0.6,0.3-0.7
		c0-0.1-0.1-0.2-0.2-0.2c-0.2,0-0.5,0.2-1,0.6c-0.5,0.4-0.9,0.8-1.4,1.3c-0.9,1-1.7,2.3-2.3,3.7c-0.3,0.1-0.6,0.2-1.1,0.4
		c0.5-1,1-2.2,1.5-3.4c0.5-1.3,0.8-2,0.8-2.2c0-0.2-0.1-0.3-0.2-0.3c-0.1,0-0.3,0-0.5,0.1c0,0-0.1,0-0.1,0l0-0.3
		c0.8-0.2,1.4-0.5,2-0.7l0.1,0c0,0.1,0,0.1,0,0.1c0,0.5-0.4,1.5-1.1,3.1l-0.1,0.2l0.1-0.2c0.9-1,1.7-1.8,2.4-2.4
		c0.7-0.6,1.3-0.9,1.8-0.9c0.3,0,0.4,0.1,0.4,0.4c0,0.3-0.4,1.1-1.1,2.5c-0.8,1.6-1.3,2.6-1.3,2.8c0,0.2,0.1,0.2,0.2,0.2
		C108.2,121.1,108.4,121,108.7,120.8L108.7,120.8z"/>
	<path class="st0" d="M117.2,115.1L117.2,115.1c0,0.6-0.3,1.6-1,3.1l-0.6,1.4c-0.3,0.7-0.5,1.2-0.5,1.3c0,0.2,0.1,0.2,0.3,0.2
		c0.1,0,0.3-0.1,0.5-0.2l0.1,0.2c-0.8,0.4-1.5,0.7-2,0.9c0-0.5,0.1-1,0.2-1.4c0.1-0.4,0.4-1.1,0.9-2.1c0.6-1.3,0.9-2,0.9-2.2
		c0-0.2-0.1-0.3-0.2-0.3c-0.1,0-0.2,0-0.3,0.1l-0.3,0.1c0,0-0.1,0-0.2,0.1l-0.1-0.3l0.2-0.1c0.6-0.2,1.2-0.5,1.8-0.7L117.2,115.1z
		 M117.6,113c0.2,0,0.4,0.1,0.4,0.4c0,0.1-0.1,0.3-0.2,0.4s-0.2,0.2-0.4,0.2c-0.3,0-0.4-0.1-0.4-0.4c0-0.1,0.1-0.3,0.2-0.4
		S117.5,113,117.6,113z"/>
	<path class="st0" d="M122.3,120.8l0.1,0.2c-0.6,0.5-1.4,0.8-2.3,1c0.1-0.9,0.6-2.2,1.6-4.1l0.5-1c0.2-0.3,0.3-0.6,0.3-0.7
		c0-0.1-0.1-0.2-0.2-0.2c-0.2,0-0.5,0.2-1,0.6c-0.5,0.4-0.9,0.8-1.4,1.3c-0.9,1-1.7,2.3-2.3,3.7c-0.3,0.1-0.6,0.2-1.1,0.4
		c0.5-1,1-2.2,1.5-3.4c0.5-1.3,0.8-2,0.8-2.2c0-0.2-0.1-0.3-0.2-0.3c-0.1,0-0.3,0-0.5,0.1c0,0-0.1,0-0.1,0l0-0.3
		c0.8-0.2,1.4-0.5,2-0.7l0.1,0c0,0.1,0,0.1,0,0.1c0,0.5-0.4,1.5-1.1,3.1l-0.1,0.2l0.1-0.2c0.9-1,1.7-1.8,2.4-2.4
		c0.7-0.6,1.3-0.9,1.8-0.9c0.3,0,0.4,0.1,0.4,0.4c0,0.3-0.4,1.1-1.1,2.5c-0.8,1.6-1.3,2.6-1.3,2.8c0,0.2,0.1,0.2,0.2,0.2
		C121.7,121.1,121.9,121,122.3,120.8L122.3,120.8z"/>
	<path class="st0" d="M140.3,116.3l-0.3,0.8c0.7,0.6,1.5,1.3,2.3,2.1l0.7,0.7c0.5,0.5,0.9,0.9,1.1,1c0.2,0.1,0.3,0.2,0.4,0.2
		c0.2,0,0.5-0.1,0.9-0.4l0.2,0.2c-0.6,0.5-1.2,1-1.7,1.3l-0.3-0.3c-1.8-1.8-3.1-3.1-4.1-4c-0.6,1.1-1.4,2-2.4,2.7
		c-1.5,1-2.9,1.6-4.3,1.6c-1.2,0-2.2-0.4-3-1.1s-1.2-1.7-1.2-2.9c0-1.1,0.3-2.1,0.9-3c0.6-1,1.5-1.8,2.6-2.5c1-0.7,2.3-1.2,3.8-1.5
		c1.5-0.4,3-0.6,4.7-0.6c1.6,0,2.8,0.2,3.7,0.6c0.9,0.4,1.3,1,1.3,1.7c0,1-0.6,1.7-1.9,2.2c-0.6,0.2-1,0.6-1.2,1.1
		c-0.4,0-0.8,0-1.2,0C140.9,116.2,140.6,116.3,140.3,116.3z M139,113.2c0.9-0.2,1.7-0.4,2.4-0.6l0,0.1c-0.2,1-0.5,1.9-0.8,2.6
		c0.3,0,0.5,0,0.7,0c1,0,1.7-0.2,2.3-0.6c0.6-0.4,0.8-1,0.8-1.7c0-1.3-1.5-2-4.5-2c-3.4,0-6,0.8-7.8,2.3c-1.6,1.3-2.4,2.8-2.4,4.6
		c0,1.1,0.4,2,1.1,2.7s1.7,1,2.8,1c0.6,0,1.2-0.1,1.9-0.4s1.2-0.6,1.7-1c0.7-0.6,1.3-1.5,1.9-2.8c-0.9-0.8-1.8-1.2-2.6-1.2
		c-0.7,0-1.3,0.2-1.8,0.7s-0.7,1.1-0.7,1.8c0,0.2,0,0.4,0.1,0.7c-0.4-0.2-0.6-0.5-0.6-1c0-0.6,0.4-1.2,1.3-1.9c0.9-0.7,1.7-1,2.4-1
		c0.6,0,1.1,0.2,1.7,0.6l0.5,0.4c0,0,0.1,0,0.1,0.1c0.2-0.4,0.4-0.9,0.5-1.5c0.2-0.6,0.3-1,0.3-1.2c0-0.3-0.2-0.5-0.5-0.5
		c-0.1,0-0.3,0-0.5,0.1L139,113.2z"/>
	<path class="st0" d="M152.4,115.5h2.8c-0.6,1.7-1.7,3.2-3.4,4.7l-0.9,0.8c-0.2,0.1-0.4,0.3-0.6,0.6l-0.5,0.5c0,0-0.1,0.1-0.2,0.1
		l0.1-0.4c0.2-0.8,0.3-1.6,0.5-2.6c0.2-1.3,0.4-2.2,0.5-2.6c-0.2,0.2-0.4,0.5-0.6,0.9c-1.2,2.3-2.3,3.8-3.5,4.6c0.4-1,0.7-1.9,1-2.8
		c0.2-0.9,0.4-1.7,0.4-2.2c0-0.5-0.1-0.8-0.4-0.8c-0.1,0-0.3,0.1-0.5,0.3l-0.1-0.2l0.2-0.1c0.5-0.3,0.8-0.6,1.1-0.8
		c0.5,0.2,0.7,0.6,0.7,1.2c0,0.8-0.3,2-0.8,3.5l-0.1,0.4c0.2-0.3,0.4-0.6,0.6-0.9l0.7-1.3c0.8-1.5,1.7-2.5,2.6-3l-1.2,5.5
		c0.1-0.1,0.5-0.4,1.2-1c1.5-1.2,2.4-2.3,2.6-3.4h-1.1h-0.3c-0.3,0-0.5,0.1-0.7,0.4l-0.2,0.4c0,0,0,0.1-0.1,0.1h-0.3L152.4,115.5z"
		/>
	<path class="st0" d="M159.3,120.8l0.1,0.2c-0.6,0.4-1.3,0.8-2.3,1c0-0.5,0.3-1.5,1-2.8c-0.7,0.8-1.4,1.5-2.1,2
		c-0.7,0.5-1.3,0.8-1.8,0.8c-0.4,0-0.6-0.2-0.6-0.7c0-0.8,0.4-1.7,1.1-2.6c0.7-0.9,1.6-1.7,2.7-2.3c1.2-0.7,2.5-1,3.7-1
		c0.2,0,0.3,0.1,0.3,0.2c0,0.1-0.1,0.3-0.2,0.6c-0.4-0.1-0.7-0.1-1.1-0.1c-1.6,0-3.1,0.6-4.2,1.9c-0.9,0.9-1.3,1.9-1.3,2.8
		c0,0.4,0.2,0.6,0.5,0.6c0.3,0,0.7-0.2,1.2-0.7c0.5-0.5,1-1,1.4-1.6c0.5-0.9,0.9-1.7,1.1-2.7c0.2,0.1,0.3,0.4,0.3,0.8
		c0,0.5-0.3,1.1-0.8,1.8c0.3,0,0.6-0.1,1-0.2l-0.1,0.1c-0.5,1.1-0.8,1.8-0.8,2c0,0.2,0.1,0.2,0.2,0.2
		C158.7,121.1,158.9,121,159.3,120.8z"/>
	<path class="st0" d="M165.5,120.8l0.1,0.2c-0.6,0.5-1.4,0.8-2.3,1c0.1-0.9,0.6-2.2,1.6-4.1l0.5-1c0.2-0.3,0.3-0.6,0.3-0.7
		c0-0.1-0.1-0.2-0.2-0.2c-0.2,0-0.5,0.2-1,0.6c-0.5,0.4-0.9,0.8-1.4,1.3c-0.9,1-1.7,2.3-2.3,3.7c-0.3,0.1-0.6,0.2-1.1,0.4
		c0.5-1,1-2.2,1.5-3.4c0.5-1.3,0.8-2,0.8-2.2c0-0.2-0.1-0.3-0.2-0.3c-0.1,0-0.3,0-0.5,0.1c0,0-0.1,0-0.1,0l0-0.3
		c0.8-0.2,1.4-0.5,2-0.7l0.1,0c0,0.1,0,0.1,0,0.1c0,0.5-0.4,1.5-1.1,3.1l-0.1,0.2l0.1-0.2c0.9-1,1.7-1.8,2.4-2.4
		c0.7-0.6,1.3-0.9,1.8-0.9c0.3,0,0.4,0.1,0.4,0.4c0,0.3-0.4,1.1-1.1,2.5c-0.8,1.6-1.3,2.6-1.3,2.8c0,0.2,0.1,0.2,0.2,0.2
		C165,121.1,165.2,121,165.5,120.8L165.5,120.8z"/>
	<path class="st0" d="M174.9,110.9c0,0.4-0.3,1.1-0.8,2.4l-0.6,1.5l-0.2,0.6c0.3,0.1,0.5,0.4,0.5,0.8c-0.2-0.1-0.5-0.1-0.8-0.1
		l-0.1,0.1l-1,2.7c-0.5,1.2-0.7,1.9-0.7,2.1c0,0.2,0.1,0.2,0.2,0.2c0.2,0,0.4-0.1,0.7-0.3c0,0,0,0,0.1,0l0.2,0.2
		c-0.6,0.4-1.4,0.8-2.4,1.1l0.1-0.3c0.2-0.6,0.5-1.5,0.8-2.4c0.1-0.3,0.2-0.6,0.3-0.8l0.9-2.4l0.1-0.2c-0.6,0-1.2,0.2-1.9,0.5
		c-0.7,0.3-1.3,0.7-1.8,1.2c-0.9,0.9-1.4,1.9-1.4,2.9c0,0.5,0.2,0.7,0.5,0.7c0.3,0,0.7-0.2,1.2-0.7c0.5-0.5,0.9-1,1.3-1.6
		c0.4-0.6,0.6-1.3,0.9-2.1c0.1,0.2,0.1,0.4,0.1,0.6c0,0.4-0.2,1-0.6,1.6c-0.4,0.6-0.9,1.2-1.5,1.7c-1,0.8-1.7,1.2-2.3,1.2
		c-0.4,0-0.6-0.3-0.6-0.8c0-0.4,0.1-1,0.4-1.5c0.3-0.6,0.7-1.1,1.2-1.7c1.3-1.5,2.9-2.4,4.7-2.7l0.2-0.6l0.6-1.5
		c0.2-0.4,0.3-0.7,0.3-0.9c0-0.2-0.1-0.3-0.3-0.3c-0.1,0-0.3,0-0.5,0.1l-0.1-0.2l0.1,0C173.7,111.5,174.4,111.2,174.9,110.9z"/>
	<path class="st0" d="M178.4,120.8l0.1,0.2c-0.6,0.4-1.3,0.8-2.3,1c0-0.5,0.3-1.5,1-2.8c-0.7,0.8-1.4,1.5-2.1,2
		c-0.7,0.5-1.3,0.8-1.8,0.8c-0.4,0-0.6-0.2-0.6-0.7c0-0.8,0.4-1.7,1.1-2.6c0.7-0.9,1.6-1.7,2.7-2.3c1.2-0.7,2.5-1,3.7-1
		c0.2,0,0.3,0.1,0.3,0.2c0,0.1-0.1,0.3-0.2,0.6c-0.4-0.1-0.7-0.1-1.1-0.1c-1.6,0-3.1,0.6-4.2,1.9c-0.9,0.9-1.3,1.9-1.3,2.8
		c0,0.4,0.2,0.6,0.5,0.6c0.3,0,0.7-0.2,1.2-0.7c0.5-0.5,1-1,1.4-1.6c0.5-0.9,0.9-1.7,1.1-2.7c0.2,0.1,0.3,0.4,0.3,0.8
		c0,0.5-0.3,1.1-0.8,1.8c0.3,0,0.6-0.1,1-0.2l-0.1,0.1c-0.5,1.1-0.8,1.8-0.8,2c0,0.2,0.1,0.2,0.2,0.2
		C177.8,121.1,178.1,121,178.4,120.8z"/>
</g>
</svg>
